<svg version="1.1" id="Layer_1" xmlns="http://www.w3.org/2000/svg" xmlns:xlink="http://www.w3.org/1999/xlink" x="0px" y="0px"
	 width="100%" viewBox="0 0 2000 1500" enable-background="new 0 0 2000 1500" xml:space="preserve">
<path fill="#333333" opacity="1.000000" stroke="none" 
	d="
M1062.000000,1501.000000 
	C708.000122,1501.000000 354.500214,1501.000000 1.000237,1501.000000 
	C1.000158,1001.000244 1.000158,501.000519 1.000079,1.000572 
	C667.666199,1.000382 1334.332397,1.000382 2000.999023,1.000191 
	C2000.999268,500.999390 2000.999268,1000.998779 2000.999634,1500.999023 
	C1688.166626,1501.000000 1375.333374,1501.000000 1062.000000,1501.000000 
M1090.502930,784.994202 
	C1146.922485,777.953186 1189.540161,730.759827 1189.981079,673.993408 
	C1190.381104,622.498535 1190.168823,570.997742 1190.024780,519.500183 
	C1189.957520,495.460938 1182.765625,473.490021 1168.324097,454.311707 
	C1145.702881,424.270721 1115.702271,408.047241 1077.643311,408.010834 
	C1024.811890,407.960266 971.980408,407.994965 919.148987,408.008667 
	C916.819336,408.009277 914.465332,407.976105 912.163696,408.274719 
	C853.880615,415.836945 812.098328,463.024872 811.935852,521.704285 
	C811.797424,571.702087 811.710022,621.702087 812.074524,671.697571 
	C812.146606,681.585571 813.295044,691.741394 815.794800,701.289978 
	C829.007324,751.758972 873.483643,785.702209 926.154053,785.885254 
	C974.485107,786.053101 1022.817139,785.952637 1071.148682,785.884155 
	C1077.302246,785.875488 1083.455200,785.345581 1090.502930,784.994202 
M1521.082642,853.536194 
	C1543.740601,836.266113 1567.117798,838.353455 1586.395874,859.455444 
	C1589.198486,862.523315 1591.697388,865.872253 1594.287476,869.130310 
	C1598.545166,874.485901 1604.323853,875.626648 1609.105957,872.005798 
	C1613.719116,868.513000 1614.791626,862.424011 1610.680786,857.429810 
	C1604.778198,850.258850 1598.757324,843.001404 1591.779663,836.940369 
	C1579.984863,826.695129 1565.958130,821.034485 1550.083496,821.487000 
	C1516.881714,822.433350 1484.444702,851.940430 1479.949707,884.986572 
	C1476.102783,913.267639 1489.339233,940.743469 1514.054199,955.394775 
	C1529.330566,964.450745 1545.500244,969.988159 1563.594238,966.482178 
	C1594.048462,960.581055 1616.381958,930.809875 1610.771606,895.931885 
	C1609.986816,891.052002 1606.192383,887.090942 1601.298462,887.140991 
	C1584.640869,887.311096 1567.979370,887.664490 1551.336304,888.355042 
	C1546.063232,888.573914 1542.237305,893.595642 1542.303711,898.654114 
	C1542.374023,904.014587 1546.479492,908.354431 1552.149170,908.698669 
	C1554.959961,908.869263 1557.802979,908.404785 1560.632202,908.392212 
	C1570.566528,908.347900 1580.501099,908.375000 1590.763062,908.375000 
	C1590.763062,909.678772 1590.893799,910.984253 1590.743652,912.256470 
	C1587.990723,935.578613 1567.108643,950.686523 1544.207642,945.954285 
	C1517.201904,940.373840 1499.191895,919.037781 1500.069946,893.158020 
	C1500.619629,876.956543 1508.851196,864.508484 1521.082642,853.536194 
M1008.192749,907.605530 
	C1010.964905,907.964844 1013.742554,908.665405 1016.508301,908.621643 
	C1026.165527,908.468689 1035.817871,908.038696 1045.473633,907.764038 
	C1047.226562,907.714172 1048.986206,907.899597 1050.652954,907.972473 
	C1052.282471,924.435852 1038.343994,942.377441 1021.582581,946.066162 
	C1004.143982,949.903931 979.731689,939.302856 968.923096,923.198914 
	C953.035278,899.527161 959.647217,868.963684 984.507751,851.158752 
	C1002.338440,838.388489 1021.876404,838.495728 1038.846558,852.378906 
	C1045.078735,857.477417 1049.989136,864.197388 1055.466187,870.210815 
	C1059.465820,874.601929 1064.889282,875.341064 1069.311035,872.020569 
	C1073.570557,868.821960 1074.907959,863.204651 1071.888428,858.686401 
	C1061.254150,842.774109 1047.842529,829.743896 1029.138672,824.304382 
	C1002.719055,816.620972 979.864807,824.432983 961.667175,844.297974 
	C945.956604,861.447876 936.210449,881.329346 940.533142,905.733032 
	C945.886047,935.952759 964.751221,954.086365 992.707703,963.954041 
	C1009.089050,969.736084 1025.163208,968.731323 1040.550415,960.468933 
	C1061.977905,948.962952 1074.185669,924.821777 1071.235352,900.149719 
	C1069.898560,888.969421 1067.611572,886.858093 1056.304199,887.053040 
	C1042.149292,887.297058 1027.998047,887.742065 1013.844666,888.078308 
	C1008.877258,888.196289 1004.913086,890.151855 1003.356689,895.003784 
	C1001.800354,899.855530 1002.855896,904.253479 1008.192749,907.605530 
M696.006531,825.192139 
	C690.824036,828.631165 688.751831,833.662292 688.789612,839.664307 
	C689.025574,877.158630 689.294128,914.652893 689.571411,952.146912 
	C689.584900,953.976746 689.655823,955.823669 689.918152,957.630920 
	C690.643555,962.628967 694.501343,965.947083 699.530334,966.039062 
	C705.757996,966.153015 709.808533,961.774963 709.800293,954.525513 
	C709.784851,940.861084 709.610840,927.196777 709.470459,913.532715 
	C709.443665,910.922913 709.278931,908.571533 713.053040,908.384460 
	C721.533813,907.964294 730.004333,906.719910 738.472473,906.777161 
	C762.462280,906.939331 770.293213,912.818542 777.791687,935.481201 
	C780.404419,943.377625 782.655334,951.393555 785.247192,959.297241 
	C787.079346,964.883911 792.238281,967.818298 797.282227,966.455566 
	C802.532043,965.037231 806.302979,959.703552 804.631897,954.571716 
	C798.203430,934.829834 795.504517,913.385010 779.191772,897.903381 
	C782.554932,895.839661 785.757446,894.098450 788.718140,892.013733 
	C796.061218,886.843262 801.243713,880.098999 803.001038,871.098389 
	C806.304626,854.178589 799.092773,840.351685 783.092163,832.070129 
	C768.748230,824.646118 753.144104,822.849609 737.511841,822.580322 
	C723.939880,822.346558 710.334351,824.063416 696.006531,825.192139 
M1431.452148,925.297607 
	C1431.332031,927.007324 1431.211792,928.717041 1431.091675,930.426758 
	C1424.456055,922.205505 1419.264160,913.525696 1413.459595,905.277100 
	C1395.351074,879.544861 1377.005249,853.979736 1358.765869,828.339539 
	C1355.780518,824.143005 1351.850952,822.034363 1346.712036,823.199951 
	C1341.451294,824.393127 1339.237305,828.543945 1338.244629,833.308899 
	C1337.604370,836.381897 1337.394531,839.600586 1337.428589,842.749329 
	C1337.776001,874.903137 1338.206787,907.056091 1338.630005,939.209106 
	C1338.708984,945.206482 1338.703125,951.210999 1339.017578,957.197449 
	C1339.299072,962.560913 1343.667480,966.520935 1348.866455,966.555786 
	C1353.806641,966.588867 1358.127075,962.821777 1358.844116,957.775818 
	C1359.006958,956.629089 1358.969849,955.446777 1358.948853,954.282166 
	C1358.419312,924.961853 1357.877930,895.641907 1357.346191,866.321655 
	C1357.312866,864.486450 1357.341919,862.650085 1357.341919,859.448059 
	C1359.355835,861.996155 1360.460327,863.226013 1361.379395,864.581482 
	C1375.490356,885.394287 1389.515015,906.265808 1403.694214,927.031921 
	C1411.673706,938.718384 1419.790649,950.315369 1428.064575,961.794861 
	C1431.671265,966.798706 1438.953125,968.508850 1444.704712,966.269043 
	C1450.560303,963.988770 1451.445801,959.090759 1451.469116,953.610962 
	C1451.618896,918.284668 1451.831055,882.958618 1452.008301,847.632446 
	C1452.033325,842.633667 1452.148438,837.626770 1451.920532,832.637451 
	C1451.606323,825.758179 1445.584839,821.427551 1439.039917,823.136536 
	C1434.554688,824.307678 1431.978149,828.370605 1431.944580,834.428467 
	C1431.778442,864.420288 1431.624878,894.412170 1431.452148,925.297607 
M412.108887,949.462463 
	C412.108887,919.989502 412.108887,890.516541 412.108887,860.189880 
	C422.826721,875.785156 433.342407,890.951050 443.714935,906.214233 
	C456.063263,924.384766 468.314606,942.621338 480.553253,960.866028 
	C484.828278,967.239136 490.598419,968.143738 497.765839,966.205750 
	C504.225403,964.459106 504.857880,958.720825 504.865845,952.865234 
	C504.901520,926.712585 505.114624,900.560181 505.205078,874.407471 
	C505.252899,860.584717 505.268341,846.760681 505.123749,832.939026 
	C505.057312,826.590698 500.737610,822.654419 494.620728,822.883606 
	C488.579346,823.109985 485.147125,827.513123 485.128998,835.127930 
	C485.056763,865.444763 484.996399,895.761658 484.932404,926.078491 
	C484.928894,927.742126 484.931915,929.405762 484.931915,931.069397 
	C479.950500,925.528687 476.076904,919.928101 472.520477,914.132935 
	C454.115356,884.142090 433.852234,855.470276 411.890381,827.980896 
	C408.749969,824.050232 405.029144,822.148682 400.165558,823.176697 
	C395.618530,824.137878 393.189789,827.535645 392.018860,831.776917 
	C391.406738,833.994202 390.998657,836.354553 391.016998,838.646179 
	C391.328796,877.618042 391.720001,916.589233 392.108673,955.560486 
	C392.118561,956.553589 392.195068,957.568481 392.415161,958.533325 
	C393.577637,963.629700 398.012634,966.938477 403.000244,966.492676 
	C408.107574,966.036133 411.794098,962.219604 412.095551,956.939758 
	C412.218781,954.781433 412.116791,952.610291 412.108887,949.462463 
M1215.167969,944.892456 
	C1209.352539,946.153442 1203.561646,948.344666 1197.716919,948.499817 
	C1180.623535,948.953674 1165.591919,943.882629 1162.891724,922.348206 
	C1162.220825,916.998291 1158.196289,914.430481 1152.819946,914.922913 
	C1147.415283,915.417908 1143.786011,919.510315 1143.699829,925.536499 
	C1143.547119,936.207581 1147.170532,945.514832 1154.649536,953.097961 
	C1168.527588,967.168823 1185.904663,970.025330 1204.498657,967.491577 
	C1217.521729,965.716919 1229.052490,960.338562 1238.096924,950.400391 
	C1253.517944,933.455322 1250.767212,909.890015 1231.589844,897.502502 
	C1226.326782,894.102783 1220.429932,891.586609 1214.616455,889.162720 
	C1208.174194,886.476746 1201.320068,884.748962 1194.962769,881.896606 
	C1187.407104,878.506470 1179.749634,875.009460 1172.940186,870.377075 
	C1165.015869,864.986206 1164.690674,854.781677 1171.429810,847.860107 
	C1173.353760,845.884033 1175.769653,844.003235 1178.321899,843.087158 
	C1191.443481,838.377686 1204.486938,838.541504 1216.984497,845.192139 
	C1223.432617,848.623474 1227.918091,853.522034 1228.509399,861.497681 
	C1228.964355,867.634033 1233.480591,871.281433 1238.733154,870.897034 
	C1244.299072,870.489685 1247.901611,866.264221 1247.987427,859.868042 
	C1248.105225,851.080017 1244.667480,843.646973 1238.880859,837.261780 
	C1218.914917,815.230591 1177.070801,815.070435 1156.855347,836.893860 
	C1141.838623,853.104919 1143.691528,875.599915 1161.343384,888.857727 
	C1165.169922,891.731750 1169.388062,894.313721 1173.795166,896.138062 
	C1183.317993,900.079956 1193.128662,903.319397 1202.726929,907.087708 
	C1209.057495,909.573120 1215.461060,912.046875 1221.395386,915.317871 
	C1227.351807,918.601135 1228.895508,923.680847 1227.413574,930.267212 
	C1225.906006,936.967773 1221.542358,941.282776 1215.167969,944.892456 
M1699.076904,882.738586 
	C1687.754639,883.042175 1676.417480,883.098328 1665.117310,883.772522 
	C1660.674683,884.037598 1659.180298,882.851685 1659.240356,878.449829 
	C1659.440430,863.795410 1659.342651,849.137146 1659.444336,834.481018 
	C1659.492676,827.514587 1655.548584,822.671204 1649.488647,822.540344 
	C1643.693237,822.415161 1639.549316,826.902222 1639.191284,833.720215 
	C1639.121338,835.050232 1639.109497,836.385071 1639.120361,837.717285 
	C1639.439331,876.860474 1639.742798,916.003845 1640.108887,955.146606 
	C1640.174194,962.136353 1644.125977,966.278442 1650.279297,966.169861 
	C1656.479126,966.060425 1660.110352,962.050659 1660.119141,954.911987 
	C1660.137817,939.919617 1660.019165,924.927185 1659.959229,909.934753 
	C1659.951660,908.026978 1659.958252,906.119141 1659.958252,903.700317 
	C1682.298340,903.321167 1703.772095,903.012024 1725.242188,902.539551 
	C1728.969360,902.457581 1729.098755,904.474609 1729.129028,907.259094 
	C1729.301025,923.082703 1729.514526,938.906677 1729.888306,954.726440 
	C1729.945068,957.126526 1730.376831,959.825317 1731.571167,961.827515 
	C1734.109985,966.083862 1738.416992,967.119690 1742.937134,965.734741 
	C1747.853149,964.228516 1749.933960,960.319824 1749.864380,955.328613 
	C1749.653198,940.172241 1749.112915,925.016113 1749.165039,909.861450 
	C1749.251465,884.714355 1749.727173,859.568848 1749.977295,834.422058 
	C1750.045288,827.586853 1745.998047,823.108521 1740.023926,823.108704 
	C1734.245972,823.108887 1730.168091,827.334656 1729.951538,833.830261 
	C1729.552246,845.813293 1729.252319,857.799988 1728.967041,869.786438 
	C1728.873047,873.735291 1728.952148,877.688354 1728.952148,882.675171 
	C1718.898560,882.675171 1709.454712,882.675171 1699.076904,882.738586 
M263.975189,966.568848 
	C268.513336,965.562561 270.965820,962.579041 272.408051,958.282837 
	C275.901886,947.875122 279.709839,937.572205 283.141510,927.144836 
	C284.187500,923.966614 285.683899,922.763428 289.143707,922.724670 
	C303.458466,922.563965 317.774170,922.175232 332.078064,921.590088 
	C335.512482,921.449585 337.086639,922.490906 338.264801,925.700439 
	C342.277069,936.630371 346.570923,947.458130 350.840210,958.292175 
	C353.579834,965.244446 359.068115,968.100952 364.857727,965.756409 
	C370.557281,963.448486 372.506378,957.517700 369.802460,950.579407 
	C368.594330,947.479248 367.302765,944.411560 366.053375,941.327393 
	C351.124939,904.474854 336.209778,867.616943 321.256470,830.774475 
	C318.898346,824.964539 313.244080,820.778687 308.080078,821.035461 
	C301.861511,821.344727 299.550659,825.740723 297.658630,830.898071 
	C282.936981,871.026306 268.105743,911.114380 253.300125,951.211792 
	C250.044159,960.029724 253.782089,965.892456 263.975189,966.568848 
M934.864624,957.177429 
	C934.501709,955.233398 934.454590,953.162109 933.729553,951.364075 
	C917.365051,910.784546 900.945190,870.227295 884.477295,829.689514 
	C882.458679,824.720520 876.393738,820.738281 871.564026,821.030273 
	C865.873230,821.374451 863.382690,825.211243 861.592285,830.091003 
	C846.754395,870.532166 831.825623,910.940002 816.931213,951.360474 
	C814.347412,958.372253 816.516052,963.964966 822.616211,966.114014 
	C828.394409,968.149658 833.512756,965.239746 835.975403,958.333313 
	C839.662903,947.991760 843.354431,937.648560 846.796265,927.224243 
	C847.820496,924.121765 849.106689,922.754700 852.656616,922.721497 
	C866.971313,922.587708 881.288513,922.204773 895.590454,921.582336 
	C899.341858,921.419067 900.853699,922.816956 902.058838,926.099609 
	C906.014282,936.874268 910.232483,947.553101 914.408447,958.245850 
	C916.627319,963.927124 920.270508,966.819092 925.003418,966.472595 
	C930.287109,966.085754 933.525146,963.121155 934.864624,957.177429 
M636.210571,894.554932 
	C635.417969,905.113708 633.170532,915.290894 628.211792,924.741638 
	C620.048096,940.300964 605.591125,947.963989 588.176392,945.992065 
	C571.958923,944.155640 561.095032,933.731750 560.065491,917.460388 
	C559.195251,903.705994 559.294800,889.857178 559.647949,876.067566 
	C560.018616,861.591919 561.350220,847.143311 561.957397,832.670105 
	C562.202820,826.819397 557.985291,822.543518 552.651001,822.294861 
	C547.134583,822.037842 542.547119,826.224792 542.043091,832.038391 
	C541.813049,834.691895 541.622437,837.352356 541.529114,840.013672 
	C540.682983,864.136047 539.404358,888.255859 539.225952,912.383667 
	C539.135498,924.601929 541.880432,936.544678 549.986938,946.516907 
	C570.279419,971.479858 610.254639,973.266968 634.314026,950.146240 
	C648.292725,936.712769 654.647339,919.309387 655.564270,900.790527 
	C656.705444,877.744507 655.362915,854.567078 654.827148,831.452576 
	C654.700134,825.973145 649.558472,821.995300 644.236023,822.301025 
	C639.072632,822.597717 635.057373,826.716675 635.018860,832.257324 
	C634.984192,837.246521 635.506042,842.236877 635.596619,847.230164 
	C635.877380,862.701111 636.069702,878.173645 636.210571,894.554932 
M1277.823486,862.501099 
	C1277.823486,890.283569 1277.823486,918.066101 1277.823486,945.984253 
	C1276.391235,946.283142 1275.280762,946.583435 1274.150269,946.739380 
	C1267.383423,947.672668 1263.606689,951.607117 1264.017822,957.341370 
	C1264.420776,962.961609 1268.965576,966.866455 1275.417480,966.797119 
	C1284.411499,966.700562 1293.406738,966.492065 1302.394409,966.144958 
	C1308.052979,965.926514 1311.823486,962.054932 1312.020264,956.702820 
	C1312.218140,951.321045 1308.794067,947.232788 1303.252930,946.314514 
	C1301.666260,946.051575 1300.053345,945.946716 1298.154541,945.736389 
	C1298.154541,911.488525 1298.154541,877.565430 1298.154541,843.487915 
	C1299.677979,843.125305 1301.137695,842.897705 1302.515015,842.428223 
	C1307.152222,840.847290 1309.832397,836.725220 1309.376099,832.034973 
	C1308.901978,827.163818 1305.208740,823.276184 1300.226562,823.059814 
	C1291.908569,822.698669 1283.573975,822.476440 1275.250122,822.561523 
	C1268.905884,822.626465 1265.066162,826.235596 1264.750366,831.671997 
	C1264.401733,837.676514 1267.489990,841.665955 1273.964233,842.535156 
	C1277.085571,842.954224 1277.820923,844.247314 1277.767700,847.008240 
	C1277.674316,851.837341 1277.790283,856.670471 1277.823486,862.501099 
M793.390381,1027.500122 
	C793.390381,1042.447632 793.390381,1057.395020 793.390381,1072.420654 
	C804.137329,1072.420654 814.256836,1072.863647 824.313660,1072.260986 
	C830.749817,1071.875488 835.411499,1067.476440 837.806763,1061.626953 
	C843.933167,1046.666016 844.019104,1031.423340 838.097290,1016.401917 
	C835.425476,1009.624817 829.772461,1006.116028 822.436523,1005.901550 
	C814.115234,1005.658203 805.782166,1005.799683 797.462585,1005.522705 
	C793.978088,1005.406677 793.254517,1006.961243 793.345276,1010.011414 
	C793.508667,1015.503296 793.391235,1021.003479 793.390381,1027.500122 
M1116.532715,1035.181641 
	C1110.988647,1022.289429 1103.803711,1020.715393 1086.800415,1027.780762 
	C1083.756714,1026.014282 1081.500610,1024.704834 1078.352173,1022.877563 
	C1078.352173,1047.624756 1078.352173,1070.656372 1078.352173,1093.700562 
	C1080.675415,1093.700562 1082.600830,1093.700562 1085.091675,1093.700562 
	C1085.091675,1085.533203 1085.091675,1077.652710 1085.091675,1069.309814 
	C1088.526611,1070.542969 1091.260864,1071.718384 1094.101929,1072.511108 
	C1106.962280,1076.099731 1116.357788,1070.363525 1117.702759,1057.187500 
	C1118.415649,1050.203491 1117.171997,1043.019531 1116.532715,1035.181641 
M1059.699097,1069.265991 
	C1065.688232,1063.263428 1065.823486,1055.520142 1065.834106,1047.858032 
	C1065.861694,1027.942993 1057.731567,1021.043579 1038.026733,1023.952148 
	C1031.240479,1024.953857 1026.665649,1028.538208 1025.002563,1035.255859 
	C1022.767029,1044.286255 1022.382935,1053.521118 1025.472290,1062.293091 
	C1026.716797,1065.826660 1029.959351,1069.889038 1033.286987,1071.215332 
	C1041.818115,1074.615723 1050.781982,1074.778198 1059.699097,1069.265991 
M949.163025,1063.065430 
	C951.358643,1069.559814 956.203369,1072.734009 962.739624,1072.976318 
	C969.037292,1073.209961 975.362549,1072.808594 981.671570,1072.574707 
	C984.682312,1072.463013 985.922546,1071.025391 984.191650,1067.407593 
	C978.293335,1067.407593 972.126465,1067.731079 966.007874,1067.326172 
	C958.285706,1066.815186 955.094177,1062.959961 954.842896,1055.371948 
	C954.748962,1052.535400 955.720764,1051.484863 958.511230,1051.495972 
	C964.003784,1051.517822 969.518188,1051.602905 974.984985,1051.172729 
	C982.429138,1050.586548 985.763306,1047.309570 986.205566,1040.922607 
	C986.841858,1031.735718 983.856140,1025.749878 976.678040,1024.592651 
	C970.895386,1023.660522 964.761902,1023.893616 958.918213,1024.648438 
	C953.545410,1025.342407 950.250549,1029.332764 948.916016,1034.632202 
	C946.595093,1043.848633 946.601196,1053.079224 949.163025,1063.065430 
M889.601807,1069.413574 
	C888.198181,1068.884521 886.817566,1067.982056 885.386719,1067.893799 
	C880.413818,1067.586670 875.393005,1067.863037 870.446472,1067.363281 
	C861.694031,1066.478760 858.050720,1061.032593 859.989807,1051.140381 
	C866.567871,1051.140381 873.348877,1051.291748 880.118835,1051.084717 
	C884.322327,1050.956177 887.911316,1049.269043 889.776611,1045.144775 
	C894.111572,1035.560059 888.541504,1025.218994 878.142090,1023.966492 
	C874.230469,1023.495361 870.169250,1023.559265 866.249451,1024.012573 
	C858.592163,1024.898193 854.008362,1028.493042 853.185242,1036.154419 
	C852.291504,1044.471802 852.406311,1053.048950 853.357178,1061.366821 
	C854.163452,1068.420410 859.240479,1072.436279 866.471191,1072.883911 
	C872.909302,1073.282227 879.411926,1072.876343 885.869507,1072.523682 
	C887.166260,1072.452881 888.388916,1071.023804 889.601807,1069.413574 
M1140.309814,1024.562500 
	C1134.491821,1026.072388 1130.769897,1030.114990 1130.306885,1035.740234 
	C1129.618408,1044.105103 1129.498047,1052.626709 1130.298462,1060.969971 
	C1130.947754,1067.738281 1135.774536,1072.217285 1142.643799,1072.746826 
	C1149.558350,1073.280029 1156.568970,1072.775146 1163.520264,1072.404297 
	C1164.623047,1072.345581 1165.635742,1070.598999 1166.690063,1069.632812 
	C1165.522705,1069.031738 1164.381104,1067.977295 1163.183350,1067.909058 
	C1158.373779,1067.634888 1153.523560,1067.937622 1148.731201,1067.527100 
	C1139.006714,1066.693848 1135.566895,1062.155518 1136.794067,1051.509277 
	C1139.793457,1051.509277 1142.901855,1051.538818 1146.009399,1051.501343 
	C1149.333496,1051.461304 1152.672485,1051.537109 1155.977295,1051.246948 
	C1164.145996,1050.529785 1167.638916,1047.156494 1167.909790,1040.029907 
	C1168.255981,1030.920288 1164.667969,1025.235474 1156.919312,1024.238403 
	C1151.728760,1023.570435 1146.366455,1024.237183 1140.309814,1024.562500 
M930.793762,1035.172852 
	C927.137878,1044.973511 923.482056,1054.774170 919.454224,1065.572021 
	C918.448914,1063.115845 917.781189,1061.635620 917.229675,1060.113037 
	C913.488892,1049.785767 909.476868,1039.542969 906.174988,1029.076294 
	C904.555847,1023.943665 901.822449,1023.253662 896.977661,1024.655273 
	C902.647827,1039.703735 908.288208,1054.447266 913.713074,1069.269653 
	C914.744080,1072.086792 916.174011,1073.013062 919.126831,1073.052002 
	C922.289612,1073.093750 923.857727,1072.046631 924.975159,1069.068726 
	C930.120056,1055.357788 935.497375,1041.734253 940.755127,1028.065430 
	C941.191345,1026.931152 941.356812,1025.692871 941.635925,1024.552856 
	C936.666321,1022.966980 933.965637,1024.572510 932.923645,1029.280762 
	C932.531921,1031.050415 931.680969,1032.718262 930.793762,1035.172852 
M1006.462097,1062.478882 
	C1006.252258,1060.005371 1005.870117,1057.532471 1005.860840,1055.058228 
	C1005.803528,1039.770386 1005.839722,1024.482178 1005.816772,1009.194031 
	C1005.813904,1007.273315 1005.646423,1005.352783 1005.557495,1003.481201 
	C1002.873779,1003.481201 1000.823120,1003.481201 998.828064,1003.481201 
	C998.587036,1004.344849 998.341064,1004.815796 998.340576,1005.286926 
	C998.322937,1023.232910 998.005066,1041.186768 998.445435,1059.122070 
	C998.729553,1070.694092 1004.789673,1074.652832 1017.063232,1072.412598 
	C1018.252197,1069.259644 1017.447754,1067.738159 1013.818054,1067.003174 
	C1011.333557,1066.500244 1009.142395,1064.549072 1006.462097,1062.478882 
M1179.998169,1037.510986 
	C1179.998169,1049.120117 1179.998169,1060.729370 1179.998169,1072.537354 
	C1182.608276,1072.537354 1184.638428,1072.537354 1187.123657,1072.537354 
	C1187.123657,1062.364746 1187.283447,1052.565552 1187.040283,1042.776367 
	C1186.950317,1039.151611 1187.990356,1036.356445 1191.215332,1035.092163 
	C1196.616699,1032.974731 1202.214478,1031.358643 1208.191528,1029.378662 
	C1208.191528,1028.350098 1208.191528,1026.302002 1208.191528,1024.196411 
	C1199.424194,1022.123413 1193.166748,1026.166138 1187.502319,1031.988037 
	C1184.931274,1023.927612 1184.931274,1023.927612 1179.998169,1024.743530 
	C1179.998169,1028.597168 1179.998169,1032.556641 1179.998169,1037.510986 
z"/>
<path fill="#FDFDE1" opacity="1.000000" stroke="none" 
	d="
M1090.055664,785.025635 
	C1083.455200,785.345581 1077.302246,785.875488 1071.148682,785.884155 
	C1022.817139,785.952637 974.485107,786.053101 926.154053,785.885254 
	C873.483643,785.702209 829.007324,751.758972 815.794800,701.289978 
	C813.295044,691.741394 812.146606,681.585571 812.074524,671.697571 
	C811.710022,621.702087 811.797424,571.702087 811.935852,521.704285 
	C812.098328,463.024872 853.880615,415.836945 912.163696,408.274719 
	C914.465332,407.976105 916.819336,408.009277 919.148987,408.008667 
	C971.980408,407.994965 1024.811890,407.960266 1077.643311,408.010834 
	C1115.702271,408.047241 1145.702881,424.270721 1168.324097,454.311707 
	C1182.765625,473.490021 1189.957520,495.460938 1190.024780,519.500183 
	C1190.168823,570.997742 1190.381104,622.498535 1189.981079,673.993408 
	C1189.540161,730.759827 1146.922485,777.953186 1090.055664,785.025635 
M925.836670,560.147278 
	C945.275452,551.805969 972.927856,557.796448 985.427246,576.297119 
	C985.797119,576.844421 986.188965,577.563782 986.733398,577.767273 
	C987.867432,578.191223 989.640076,578.922913 990.188660,578.438660 
	C991.078613,577.653259 991.595886,575.968933 991.523865,574.706787 
	C991.454346,573.489258 990.500977,572.289856 989.831604,571.143494 
	C971.713135,540.113098 936.832214,528.919006 903.996277,543.583862 
	C896.818359,546.789551 893.696533,554.346985 896.851501,560.880371 
	C900.140442,567.691101 908.159546,569.963806 915.130981,566.065369 
	C918.465698,564.200562 921.805237,562.344299 925.836670,560.147278 
M1060.812744,592.329590 
	C1082.095337,580.591858 1092.697021,561.908203 1095.613281,538.376587 
	C1096.229980,533.400696 1094.016479,529.232727 1089.814331,526.404968 
	C1085.905151,523.774414 1081.674561,523.555237 1077.498169,525.727966 
	C1071.493164,528.851990 1070.185547,534.136169 1070.541138,540.478149 
	C1071.901245,564.735657 1055.078247,587.241882 1031.809082,592.532104 
	C1029.379639,593.084412 1026.828735,593.184631 1024.469849,593.926086 
	C1023.473816,594.239258 1022.194458,595.674988 1022.199890,596.593567 
	C1022.205627,597.553894 1023.421692,598.920471 1024.433594,599.358093 
	C1025.733887,599.920349 1027.357422,599.843567 1028.842773,599.852295 
	C1039.838989,599.916870 1050.303345,597.598511 1060.812744,592.329590 
M906.551453,653.823730 
	C905.871643,662.417114 910.939636,668.852783 918.526917,669.031067 
	C926.297180,669.213745 931.433411,663.146851 931.626221,654.630981 
	C931.771667,648.206238 931.763489,641.416016 933.796570,635.462158 
	C940.552063,615.678345 953.952942,603.040894 975.322754,599.893921 
	C976.999451,599.647095 978.426880,597.707520 979.970093,596.554565 
	C978.283325,595.590332 976.617615,593.855835 974.905701,593.808838 
	C970.105408,593.677246 965.181091,593.703979 960.491394,594.619568 
	C930.637573,600.447754 910.321472,622.647339 906.551453,653.823730 
M922.200989,574.665955 
	C908.992493,579.582886 898.640198,588.216736 890.295471,599.383301 
	C886.195068,604.870422 886.813538,612.211670 891.520386,616.664307 
	C896.129822,621.024841 903.546082,621.219055 908.320251,616.770020 
	C910.091064,615.119934 911.480591,612.893677 912.558228,610.692322 
	C924.473633,586.352783 955.798767,576.612366 976.767212,586.605774 
	C977.663879,587.033081 978.662231,587.588806 979.581726,587.535950 
	C980.620789,587.476257 982.201416,587.040222 982.503296,586.326477 
	C982.920837,585.339417 982.755005,583.658447 982.127441,582.787048 
	C981.304260,581.644104 979.843567,580.905151 978.561523,580.155884 
	C960.892883,569.830078 942.360229,567.639648 922.200989,574.665955 
M970.513550,622.096619 
	C973.704834,618.949829 977.061890,615.948608 980.011047,612.589294 
	C981.309326,611.110413 981.778015,608.903198 982.623291,607.026550 
	C980.516724,607.130920 978.032410,606.537354 976.359619,607.442993 
	C944.771729,624.545227 932.788452,661.417969 948.042725,694.126831 
	C950.266541,698.895264 954.029419,701.623779 959.308899,701.973511 
	C964.268127,702.302002 968.116699,700.106812 970.537781,695.904236 
	C973.503723,690.755920 972.493835,685.812622 969.391968,680.889526 
	C957.098999,661.379211 958.117065,641.941345 970.513550,622.096619 
M994.473877,512.960388 
	C1010.119446,523.647705 1021.235840,550.680176 1011.113708,572.748718 
	C1010.416443,574.268982 1011.332642,576.529236 1011.498413,578.445312 
	C1013.296448,577.440674 1015.805176,576.892639 1016.787476,575.363892 
	C1035.988403,545.480286 1027.333984,505.056946 997.718140,485.545197 
	C991.575928,481.498535 983.474915,483.013947 979.700012,488.915802 
	C975.846802,494.940063 977.730042,502.717255 984.071228,506.671478 
	C987.307739,508.689758 990.626709,510.575745 994.473877,512.960388 
M1032.940430,683.606995 
	C1041.667847,686.139343 1050.321777,688.981873 1059.152710,691.078186 
	C1063.831909,692.189026 1067.992798,689.990906 1070.890137,686.057007 
	C1073.947876,681.905334 1074.170898,677.332520 1071.789307,672.883789 
	C1068.968140,667.613770 1064.167480,665.593140 1058.376953,666.151672 
	C1031.974976,668.698669 1006.513550,647.344421 1004.100830,622.317871 
	C1003.948242,620.735229 1001.924316,619.333069 1000.770935,617.846985 
	C999.826599,619.529724 998.088501,621.197693 998.056702,622.897461 
	C997.554749,649.717529 1008.718628,670.018982 1032.940430,683.606995 
M1053.870728,636.896606 
	C1038.619385,635.408142 1025.587158,629.771179 1016.408508,616.896912 
	C1015.932312,616.229004 1015.369873,615.387146 1014.675720,615.166199 
	C1013.681213,614.849548 1012.265686,614.625977 1011.516174,615.112305 
	C1010.756226,615.605408 1010.164612,617.054260 1010.264648,618.003845 
	C1010.395996,619.249573 1011.200317,620.459167 1011.846130,621.610901 
	C1029.448120,653.001221 1065.542480,664.764099 1098.233643,649.759033 
	C1102.602539,647.753784 1105.429932,644.472656 1106.099976,639.588379 
	C1106.799438,634.490967 1105.080078,630.307373 1100.799438,627.502991 
	C1096.019409,624.371399 1091.059937,624.538147 1086.285889,627.708618 
	C1076.733521,634.052307 1066.345825,637.500916 1053.870728,636.896606 
M1052.813232,622.827942 
	C1077.598389,623.844666 1096.887573,613.502014 1111.616943,594.072266 
	C1117.827515,585.879700 1113.273926,574.803528 1103.431519,573.508728 
	C1097.558716,572.736145 1093.136353,575.687866 1089.202148,583.006165 
	C1076.564575,606.515076 1050.177490,616.351318 1025.360962,606.997742 
	C1023.594543,606.331909 1021.262390,607.167358 1019.193298,607.304688 
	C1020.274475,609.096252 1020.928040,611.550049 1022.507507,612.569824 
	C1031.436768,618.334900 1041.352905,621.519714 1052.813232,622.827942 
M1059.625732,538.973206 
	C1061.474365,525.282837 1059.565308,512.116577 1054.018066,499.486053 
	C1051.688110,494.180969 1046.775024,491.001373 1041.430664,491.373260 
	C1036.104980,491.743866 1032.342896,494.550568 1030.488037,499.508209 
	C1028.716675,504.242615 1029.958740,508.571198 1032.779175,512.679382 
	C1048.257568,535.224915 1041.148193,567.881714 1021.608643,581.119812 
	C1020.283691,582.017456 1020.072388,584.558838 1019.343140,586.335754 
	C1021.294250,586.321594 1023.624146,587.007019 1025.139038,586.187012 
	C1043.761841,576.104919 1055.637451,560.925781 1059.625732,538.973206 
M978.402100,674.061523 
	C983.292725,687.837708 992.052002,698.696411 1003.665833,707.353149 
	C1008.468262,710.932739 1014.423157,711.026978 1019.027466,707.836914 
	C1023.160828,704.973145 1025.133789,699.732300 1023.894470,694.609192 
	C1022.683350,689.602112 1018.938416,687.038269 1014.613220,684.876953 
	C991.047852,673.101074 980.816895,642.509521 990.764954,620.930054 
	C991.502014,619.331299 990.499634,616.930603 990.305969,614.902771 
	C988.533569,616.007935 986.071777,616.690186 985.094666,618.283142 
	C974.513611,635.533997 971.916870,653.893127 978.402100,674.061523 
M953.771423,527.419250 
	C955.730286,527.791077 957.745422,527.979980 959.639404,528.562744 
	C980.916382,535.109253 994.317993,548.698792 997.878357,571.209900 
	C998.133667,572.824280 999.814758,574.213135 1000.832947,575.706848 
	C1001.907043,574.107971 1003.861145,572.526123 1003.892456,570.907043 
	C1003.991577,565.777893 1003.851807,560.549255 1002.952087,555.511292 
	C997.647827,525.811340 973.741516,505.285339 942.581238,502.089081 
	C935.233521,501.335419 928.973267,507.035370 928.734375,514.053406 
	C928.484375,521.397095 933.855530,526.953613 941.408447,527.123474 
	C945.233154,527.209412 949.059387,527.231750 953.771423,527.419250 
z"/>
<path fill="#7EC17D" opacity="1.000000" stroke="none" 
	d="
M1520.807129,853.762451 
	C1508.851196,864.508484 1500.619629,876.956543 1500.069946,893.158020 
	C1499.191895,919.037781 1517.201904,940.373840 1544.207642,945.954285 
	C1567.108643,950.686523 1587.990723,935.578613 1590.743652,912.256470 
	C1590.893799,910.984253 1590.763062,909.678772 1590.763062,908.375000 
	C1580.501099,908.375000 1570.566528,908.347900 1560.632202,908.392212 
	C1557.802979,908.404785 1554.959961,908.869263 1552.149170,908.698669 
	C1546.479492,908.354431 1542.374023,904.014587 1542.303711,898.654114 
	C1542.237305,893.595642 1546.063232,888.573914 1551.336304,888.355042 
	C1567.979370,887.664490 1584.640869,887.311096 1601.298462,887.140991 
	C1606.192383,887.090942 1609.986816,891.052002 1610.771606,895.931885 
	C1616.381958,930.809875 1594.048462,960.581055 1563.594238,966.482178 
	C1545.500244,969.988159 1529.330566,964.450745 1514.054199,955.394775 
	C1489.339233,940.743469 1476.102783,913.267639 1479.949707,884.986572 
	C1484.444702,851.940430 1516.881714,822.433350 1550.083496,821.487000 
	C1565.958130,821.034485 1579.984863,826.695129 1591.779663,836.940369 
	C1598.757324,843.001404 1604.778198,850.258850 1610.680786,857.429810 
	C1614.791626,862.424011 1613.719116,868.513000 1609.105957,872.005798 
	C1604.323853,875.626648 1598.545166,874.485901 1594.287476,869.130310 
	C1591.697388,865.872253 1589.198486,862.523315 1586.395874,859.455444 
	C1567.117798,838.353455 1543.740601,836.266113 1520.807129,853.762451 
z"/>
<path fill="#7EC17D" opacity="1.000000" stroke="none" 
	d="
M1007.857971,907.400635 
	C1002.855896,904.253479 1001.800354,899.855530 1003.356689,895.003784 
	C1004.913086,890.151855 1008.877258,888.196289 1013.844666,888.078308 
	C1027.998047,887.742065 1042.149292,887.297058 1056.304199,887.053040 
	C1067.611572,886.858093 1069.898560,888.969421 1071.235352,900.149719 
	C1074.185669,924.821777 1061.977905,948.962952 1040.550415,960.468933 
	C1025.163208,968.731323 1009.089050,969.736084 992.707703,963.954041 
	C964.751221,954.086365 945.886047,935.952759 940.533142,905.733032 
	C936.210449,881.329346 945.956604,861.447876 961.667175,844.297974 
	C979.864807,824.432983 1002.719055,816.620972 1029.138672,824.304382 
	C1047.842529,829.743896 1061.254150,842.774109 1071.888428,858.686401 
	C1074.907959,863.204651 1073.570557,868.821960 1069.311035,872.020569 
	C1064.889282,875.341064 1059.465820,874.601929 1055.466187,870.210815 
	C1049.989136,864.197388 1045.078735,857.477417 1038.846558,852.378906 
	C1021.876404,838.495728 1002.338440,838.388489 984.507751,851.158752 
	C959.647217,868.963684 953.035278,899.527161 968.923096,923.198914 
	C979.731689,939.302856 1004.143982,949.903931 1021.582581,946.066162 
	C1038.343994,942.377441 1052.282471,924.435852 1050.652954,907.972473 
	C1048.986206,907.899597 1047.226562,907.714172 1045.473633,907.764038 
	C1035.817871,908.038696 1026.165527,908.468689 1016.508301,908.621643 
	C1013.742554,908.665405 1010.964905,907.964844 1007.857971,907.400635 
z"/>
<path fill="#7EC17D" opacity="1.000000" stroke="none" 
	d="
M696.375122,825.055176 
	C710.334351,824.063416 723.939880,822.346558 737.511841,822.580322 
	C753.144104,822.849609 768.748230,824.646118 783.092163,832.070129 
	C799.092773,840.351685 806.304626,854.178589 803.001038,871.098389 
	C801.243713,880.098999 796.061218,886.843262 788.718140,892.013733 
	C785.757446,894.098450 782.554932,895.839661 779.191772,897.903381 
	C795.504517,913.385010 798.203430,934.829834 804.631897,954.571716 
	C806.302979,959.703552 802.532043,965.037231 797.282227,966.455566 
	C792.238281,967.818298 787.079346,964.883911 785.247192,959.297241 
	C782.655334,951.393555 780.404419,943.377625 777.791687,935.481201 
	C770.293213,912.818542 762.462280,906.939331 738.472473,906.777161 
	C730.004333,906.719910 721.533813,907.964294 713.053040,908.384460 
	C709.278931,908.571533 709.443665,910.922913 709.470459,913.532715 
	C709.610840,927.196777 709.784851,940.861084 709.800293,954.525513 
	C709.808533,961.774963 705.757996,966.153015 699.530334,966.039062 
	C694.501343,965.947083 690.643555,962.628967 689.918152,957.630920 
	C689.655823,955.823669 689.584900,953.976746 689.571411,952.146912 
	C689.294128,914.652893 689.025574,877.158630 688.789612,839.664307 
	C688.751831,833.662292 690.824036,828.631165 696.375122,825.055176 
M708.995667,874.480896 
	C708.995667,878.526306 708.995667,882.571716 708.995667,886.105164 
	C718.785034,886.105164 727.590088,886.260742 736.387390,886.067505 
	C748.616638,885.799011 760.578796,883.901367 771.777100,878.700928 
	C778.251160,875.694458 783.690735,871.382812 783.596863,863.482422 
	C783.502441,855.532043 777.790466,851.633911 771.298401,848.673523 
	C770.995789,848.535583 770.703918,848.367737 770.391602,848.257874 
	C750.490906,841.260376 730.075989,841.104553 708.988892,843.297119 
	C708.988892,853.613342 708.988892,863.549927 708.995667,874.480896 
z"/>
<path fill="#7EC17D" opacity="1.000000" stroke="none" 
	d="
M1431.459473,924.850830 
	C1431.624878,894.412170 1431.778442,864.420288 1431.944580,834.428467 
	C1431.978149,828.370605 1434.554688,824.307678 1439.039917,823.136536 
	C1445.584839,821.427551 1451.606323,825.758179 1451.920532,832.637451 
	C1452.148438,837.626770 1452.033325,842.633667 1452.008301,847.632446 
	C1451.831055,882.958618 1451.618896,918.284668 1451.469116,953.610962 
	C1451.445801,959.090759 1450.560303,963.988770 1444.704712,966.269043 
	C1438.953125,968.508850 1431.671265,966.798706 1428.064575,961.794861 
	C1419.790649,950.315369 1411.673706,938.718384 1403.694214,927.031921 
	C1389.515015,906.265808 1375.490356,885.394287 1361.379395,864.581482 
	C1360.460327,863.226013 1359.355835,861.996155 1357.341919,859.448059 
	C1357.341919,862.650085 1357.312866,864.486450 1357.346191,866.321655 
	C1357.877930,895.641907 1358.419312,924.961853 1358.948853,954.282166 
	C1358.969849,955.446777 1359.006958,956.629089 1358.844116,957.775818 
	C1358.127075,962.821777 1353.806641,966.588867 1348.866455,966.555786 
	C1343.667480,966.520935 1339.299072,962.560913 1339.017578,957.197449 
	C1338.703125,951.210999 1338.708984,945.206482 1338.630005,939.209106 
	C1338.206787,907.056091 1337.776001,874.903137 1337.428589,842.749329 
	C1337.394531,839.600586 1337.604370,836.381897 1338.244629,833.308899 
	C1339.237305,828.543945 1341.451294,824.393127 1346.712036,823.199951 
	C1351.850952,822.034363 1355.780518,824.143005 1358.765869,828.339539 
	C1377.005249,853.979736 1395.351074,879.544861 1413.459595,905.277100 
	C1419.264160,913.525696 1424.456055,922.205505 1431.091675,930.426758 
	C1431.211792,928.717041 1431.332031,927.007324 1431.459473,924.850830 
z"/>
<path fill="#7EC17D" opacity="1.000000" stroke="none" 
	d="
M412.113068,949.953735 
	C412.116791,952.610291 412.218781,954.781433 412.095551,956.939758 
	C411.794098,962.219604 408.107574,966.036133 403.000244,966.492676 
	C398.012634,966.938477 393.577637,963.629700 392.415161,958.533325 
	C392.195068,957.568481 392.118561,956.553589 392.108673,955.560486 
	C391.720001,916.589233 391.328796,877.618042 391.016998,838.646179 
	C390.998657,836.354553 391.406738,833.994202 392.018860,831.776917 
	C393.189789,827.535645 395.618530,824.137878 400.165558,823.176697 
	C405.029144,822.148682 408.749969,824.050232 411.890381,827.980896 
	C433.852234,855.470276 454.115356,884.142090 472.520477,914.132935 
	C476.076904,919.928101 479.950500,925.528687 484.931915,931.069397 
	C484.931915,929.405762 484.928894,927.742126 484.932404,926.078491 
	C484.996399,895.761658 485.056763,865.444763 485.128998,835.127930 
	C485.147125,827.513123 488.579346,823.109985 494.620728,822.883606 
	C500.737610,822.654419 505.057312,826.590698 505.123749,832.939026 
	C505.268341,846.760681 505.252899,860.584717 505.205078,874.407471 
	C505.114624,900.560181 504.901520,926.712585 504.865845,952.865234 
	C504.857880,958.720825 504.225403,964.459106 497.765839,966.205750 
	C490.598419,968.143738 484.828278,967.239136 480.553253,960.866028 
	C468.314606,942.621338 456.063263,924.384766 443.714935,906.214233 
	C433.342407,890.951050 422.826721,875.785156 412.108887,860.189880 
	C412.108887,890.516541 412.108887,919.989502 412.113068,949.953735 
z"/>
<path fill="#7EC17D" opacity="1.000000" stroke="none" 
	d="
M1215.501709,944.717041 
	C1221.542358,941.282776 1225.906006,936.967773 1227.413574,930.267212 
	C1228.895508,923.680847 1227.351807,918.601135 1221.395386,915.317871 
	C1215.461060,912.046875 1209.057495,909.573120 1202.726929,907.087708 
	C1193.128662,903.319397 1183.317993,900.079956 1173.795166,896.138062 
	C1169.388062,894.313721 1165.169922,891.731750 1161.343384,888.857727 
	C1143.691528,875.599915 1141.838623,853.104919 1156.855347,836.893860 
	C1177.070801,815.070435 1218.914917,815.230591 1238.880859,837.261780 
	C1244.667480,843.646973 1248.105225,851.080017 1247.987427,859.868042 
	C1247.901611,866.264221 1244.299072,870.489685 1238.733154,870.897034 
	C1233.480591,871.281433 1228.964355,867.634033 1228.509399,861.497681 
	C1227.918091,853.522034 1223.432617,848.623474 1216.984497,845.192139 
	C1204.486938,838.541504 1191.443481,838.377686 1178.321899,843.087158 
	C1175.769653,844.003235 1173.353760,845.884033 1171.429810,847.860107 
	C1164.690674,854.781677 1165.015869,864.986206 1172.940186,870.377075 
	C1179.749634,875.009460 1187.407104,878.506470 1194.962769,881.896606 
	C1201.320068,884.748962 1208.174194,886.476746 1214.616455,889.162720 
	C1220.429932,891.586609 1226.326782,894.102783 1231.589844,897.502502 
	C1250.767212,909.890015 1253.517944,933.455322 1238.096924,950.400391 
	C1229.052490,960.338562 1217.521729,965.716919 1204.498657,967.491577 
	C1185.904663,970.025330 1168.527588,967.168823 1154.649536,953.097961 
	C1147.170532,945.514832 1143.547119,936.207581 1143.699829,925.536499 
	C1143.786011,919.510315 1147.415283,915.417908 1152.819946,914.922913 
	C1158.196289,914.430481 1162.220825,916.998291 1162.891724,922.348206 
	C1165.591919,943.882629 1180.623535,948.953674 1197.716919,948.499817 
	C1203.561646,948.344666 1209.352539,946.153442 1215.501709,944.717041 
z"/>
<path fill="#7EC17D" opacity="1.000000" stroke="none" 
	d="
M1699.543945,882.706909 
	C1709.454712,882.675171 1718.898560,882.675171 1728.952148,882.675171 
	C1728.952148,877.688354 1728.873047,873.735291 1728.967041,869.786438 
	C1729.252319,857.799988 1729.552246,845.813293 1729.951538,833.830261 
	C1730.168091,827.334656 1734.245972,823.108887 1740.023926,823.108704 
	C1745.998047,823.108521 1750.045288,827.586853 1749.977295,834.422058 
	C1749.727173,859.568848 1749.251465,884.714355 1749.165039,909.861450 
	C1749.112915,925.016113 1749.653198,940.172241 1749.864380,955.328613 
	C1749.933960,960.319824 1747.853149,964.228516 1742.937134,965.734741 
	C1738.416992,967.119690 1734.109985,966.083862 1731.571167,961.827515 
	C1730.376831,959.825317 1729.945068,957.126526 1729.888306,954.726440 
	C1729.514526,938.906677 1729.301025,923.082703 1729.129028,907.259094 
	C1729.098755,904.474609 1728.969360,902.457581 1725.242188,902.539551 
	C1703.772095,903.012024 1682.298340,903.321167 1659.958252,903.700317 
	C1659.958252,906.119141 1659.951660,908.026978 1659.959229,909.934753 
	C1660.019165,924.927185 1660.137817,939.919617 1660.119141,954.911987 
	C1660.110352,962.050659 1656.479126,966.060425 1650.279297,966.169861 
	C1644.125977,966.278442 1640.174194,962.136353 1640.108887,955.146606 
	C1639.742798,916.003845 1639.439331,876.860474 1639.120361,837.717285 
	C1639.109497,836.385071 1639.121338,835.050232 1639.191284,833.720215 
	C1639.549316,826.902222 1643.693237,822.415161 1649.488647,822.540344 
	C1655.548584,822.671204 1659.492676,827.514587 1659.444336,834.481018 
	C1659.342651,849.137146 1659.440430,863.795410 1659.240356,878.449829 
	C1659.180298,882.851685 1660.674683,884.037598 1665.117310,883.772522 
	C1676.417480,883.098328 1687.754639,883.042175 1699.543945,882.706909 
z"/>
<path fill="#7EC17D" opacity="1.000000" stroke="none" 
	d="
M263.596008,966.641357 
	C253.782089,965.892456 250.044159,960.029724 253.300125,951.211792 
	C268.105743,911.114380 282.936981,871.026306 297.658630,830.898071 
	C299.550659,825.740723 301.861511,821.344727 308.080078,821.035461 
	C313.244080,820.778687 318.898346,824.964539 321.256470,830.774475 
	C336.209778,867.616943 351.124939,904.474854 366.053375,941.327393 
	C367.302765,944.411560 368.594330,947.479248 369.802460,950.579407 
	C372.506378,957.517700 370.557281,963.448486 364.857727,965.756409 
	C359.068115,968.100952 353.579834,965.244446 350.840210,958.292175 
	C346.570923,947.458130 342.277069,936.630371 338.264801,925.700439 
	C337.086639,922.490906 335.512482,921.449585 332.078064,921.590088 
	C317.774170,922.175232 303.458466,922.563965 289.143707,922.724670 
	C285.683899,922.763428 284.187500,923.966614 283.141510,927.144836 
	C279.709839,937.572205 275.901886,947.875122 272.408051,958.282837 
	C270.965820,962.579041 268.513336,965.562561 263.596008,966.641357 
M326.799377,897.704712 
	C321.363220,884.641663 315.927032,871.578552 309.975922,857.278015 
	C303.793854,872.932129 298.179321,887.149231 292.446411,901.665955 
	C304.133575,901.665955 314.757812,901.667786 325.382050,901.664551 
	C328.009186,901.663696 327.986145,900.272339 326.799377,897.704712 
z"/>
<path fill="#7EC17D" opacity="1.000000" stroke="none" 
	d="
M934.810303,957.573425 
	C933.525146,963.121155 930.287109,966.085754 925.003418,966.472595 
	C920.270508,966.819092 916.627319,963.927124 914.408447,958.245850 
	C910.232483,947.553101 906.014282,936.874268 902.058838,926.099609 
	C900.853699,922.816956 899.341858,921.419067 895.590454,921.582336 
	C881.288513,922.204773 866.971313,922.587708 852.656616,922.721497 
	C849.106689,922.754700 847.820496,924.121765 846.796265,927.224243 
	C843.354431,937.648560 839.662903,947.991760 835.975403,958.333313 
	C833.512756,965.239746 828.394409,968.149658 822.616211,966.114014 
	C816.516052,963.964966 814.347412,958.372253 816.931213,951.360474 
	C831.825623,910.940002 846.754395,870.532166 861.592285,830.091003 
	C863.382690,825.211243 865.873230,821.374451 871.564026,821.030273 
	C876.393738,820.738281 882.458679,824.720520 884.477295,829.689514 
	C900.945190,870.227295 917.365051,910.784546 933.729553,951.364075 
	C934.454590,953.162109 934.501709,955.233398 934.810303,957.573425 
M878.823730,869.661377 
	C877.213135,865.900452 875.602478,862.139465 873.584778,857.428101 
	C867.480469,872.814819 861.796570,887.141663 856.180481,901.297791 
	C868.122314,901.297791 879.601013,901.297791 891.856567,901.297791 
	C887.328674,890.336365 883.206909,880.357971 878.823730,869.661377 
z"/>
<path fill="#7EC17D" opacity="1.000000" stroke="none" 
	d="
M636.253418,894.100220 
	C636.069702,878.173645 635.877380,862.701111 635.596619,847.230164 
	C635.506042,842.236877 634.984192,837.246521 635.018860,832.257324 
	C635.057373,826.716675 639.072632,822.597717 644.236023,822.301025 
	C649.558472,821.995300 654.700134,825.973145 654.827148,831.452576 
	C655.362915,854.567078 656.705444,877.744507 655.564270,900.790527 
	C654.647339,919.309387 648.292725,936.712769 634.314026,950.146240 
	C610.254639,973.266968 570.279419,971.479858 549.986938,946.516907 
	C541.880432,936.544678 539.135498,924.601929 539.225952,912.383667 
	C539.404358,888.255859 540.682983,864.136047 541.529114,840.013672 
	C541.622437,837.352356 541.813049,834.691895 542.043091,832.038391 
	C542.547119,826.224792 547.134583,822.037842 552.651001,822.294861 
	C557.985291,822.543518 562.202820,826.819397 561.957397,832.670105 
	C561.350220,847.143311 560.018616,861.591919 559.647949,876.067566 
	C559.294800,889.857178 559.195251,903.705994 560.065491,917.460388 
	C561.095032,933.731750 571.958923,944.155640 588.176392,945.992065 
	C605.591125,947.963989 620.048096,940.300964 628.211792,924.741638 
	C633.170532,915.290894 635.417969,905.113708 636.253418,894.100220 
z"/>
<path fill="#7EC27D" opacity="1.000000" stroke="none" 
	d="
M1277.821045,862.001526 
	C1277.790283,856.670471 1277.674316,851.837341 1277.767700,847.008240 
	C1277.820923,844.247314 1277.085571,842.954224 1273.964233,842.535156 
	C1267.489990,841.665955 1264.401733,837.676514 1264.750366,831.671997 
	C1265.066162,826.235596 1268.905884,822.626465 1275.250122,822.561523 
	C1283.573975,822.476440 1291.908569,822.698669 1300.226562,823.059814 
	C1305.208740,823.276184 1308.901978,827.163818 1309.376099,832.034973 
	C1309.832397,836.725220 1307.152222,840.847290 1302.515015,842.428223 
	C1301.137695,842.897705 1299.677979,843.125305 1298.154541,843.487915 
	C1298.154541,877.565430 1298.154541,911.488525 1298.154541,945.736389 
	C1300.053345,945.946716 1301.666260,946.051575 1303.252930,946.314514 
	C1308.794067,947.232788 1312.218140,951.321045 1312.020264,956.702820 
	C1311.823486,962.054932 1308.052979,965.926514 1302.394409,966.144958 
	C1293.406738,966.492065 1284.411499,966.700562 1275.417480,966.797119 
	C1268.965576,966.866455 1264.420776,962.961609 1264.017822,957.341370 
	C1263.606689,951.607117 1267.383423,947.672668 1274.150269,946.739380 
	C1275.280762,946.583435 1276.391235,946.283142 1277.823486,945.984253 
	C1277.823486,918.066101 1277.823486,890.283569 1277.821045,862.001526 
z"/>
<path fill="#7DBF7C" opacity="1.000000" stroke="none" 
	d="
M793.390747,1027.000244 
	C793.391235,1021.003479 793.508667,1015.503296 793.345276,1010.011414 
	C793.254517,1006.961243 793.978088,1005.406677 797.462585,1005.522705 
	C805.782166,1005.799683 814.115234,1005.658203 822.436523,1005.901550 
	C829.772461,1006.116028 835.425476,1009.624817 838.097290,1016.401917 
	C844.019104,1031.423340 843.933167,1046.666016 837.806763,1061.626953 
	C835.411499,1067.476440 830.749817,1071.875488 824.313660,1072.260986 
	C814.256836,1072.863647 804.137329,1072.420654 793.390381,1072.420654 
	C793.390381,1057.395020 793.390381,1042.447632 793.390747,1027.000244 
M830.174316,1060.551636 
	C836.779785,1047.246338 836.420715,1033.527100 831.765259,1019.910034 
	C830.808472,1017.111633 827.260254,1013.754211 824.477173,1013.303040 
	C816.900818,1012.074646 809.094543,1012.264282 801.262756,1011.886353 
	C801.262756,1030.518555 801.262756,1048.069336 801.262756,1066.184570 
	C807.552551,1066.184570 813.581116,1066.773315 819.417175,1065.967651 
	C823.017761,1065.470703 826.324951,1062.848145 830.174316,1060.551636 
z"/>
<path fill="#7DC07C" opacity="1.000000" stroke="none" 
	d="
M1116.672119,1035.553711 
	C1117.171997,1043.019531 1118.415649,1050.203491 1117.702759,1057.187500 
	C1116.357788,1070.363525 1106.962280,1076.099731 1094.101929,1072.511108 
	C1091.260864,1071.718384 1088.526611,1070.542969 1085.091675,1069.309814 
	C1085.091675,1077.652710 1085.091675,1085.533203 1085.091675,1093.700562 
	C1082.600830,1093.700562 1080.675415,1093.700562 1078.352173,1093.700562 
	C1078.352173,1070.656372 1078.352173,1047.624756 1078.352173,1022.877563 
	C1081.500610,1024.704834 1083.756714,1026.014282 1086.800415,1027.780762 
	C1103.803711,1020.715393 1110.988647,1022.289429 1116.672119,1035.553711 
M1087.030273,1064.321655 
	C1089.212891,1065.104614 1091.344849,1066.100830 1093.586914,1066.634033 
	C1103.653198,1069.028076 1109.802124,1064.703979 1110.912842,1054.435059 
	C1111.215210,1051.640137 1111.202759,1048.792969 1111.112793,1045.976929 
	C1110.641235,1031.210205 1101.498657,1025.616333 1088.322021,1032.211060 
	C1086.821167,1032.962158 1085.287476,1035.307617 1085.217651,1036.974487 
	C1084.891357,1044.765503 1085.022095,1052.578369 1085.128174,1060.381592 
	C1085.144409,1061.572144 1085.887939,1062.752930 1087.030273,1064.321655 
z"/>
<path fill="#7CBE7B" opacity="1.000000" stroke="none" 
	d="
M1059.415649,1069.500977 
	C1050.781982,1074.778198 1041.818115,1074.615723 1033.286987,1071.215332 
	C1029.959351,1069.889038 1026.716797,1065.826660 1025.472290,1062.293091 
	C1022.382935,1053.521118 1022.767029,1044.286255 1025.002563,1035.255859 
	C1026.665649,1028.538208 1031.240479,1024.953857 1038.026733,1023.952148 
	C1057.731567,1021.043579 1065.861694,1027.942993 1065.834106,1047.858032 
	C1065.823486,1055.520142 1065.688232,1063.263428 1059.415649,1069.500977 
M1057.993896,1055.942627 
	C1058.061768,1052.121216 1058.293579,1048.294556 1058.167480,1044.479492 
	C1057.756958,1032.065186 1053.593994,1028.560181 1041.278442,1029.714966 
	C1036.334839,1030.178589 1032.554565,1032.541382 1032.168701,1037.334106 
	C1031.563232,1044.855469 1031.736694,1052.495117 1032.345337,1060.022827 
	C1032.518066,1062.158691 1034.939819,1064.821411 1037.029663,1065.970093 
	C1045.770874,1070.775269 1055.338989,1066.400024 1057.993896,1055.942627 
z"/>
<path fill="#7CBE7B" opacity="1.000000" stroke="none" 
	d="
M949.062500,1062.681152 
	C946.601196,1053.079224 946.595093,1043.848633 948.916016,1034.632202 
	C950.250549,1029.332764 953.545410,1025.342407 958.918213,1024.648438 
	C964.761902,1023.893616 970.895386,1023.660522 976.678040,1024.592651 
	C983.856140,1025.749878 986.841858,1031.735718 986.205566,1040.922607 
	C985.763306,1047.309570 982.429138,1050.586548 974.984985,1051.172729 
	C969.518188,1051.602905 964.003784,1051.517822 958.511230,1051.495972 
	C955.720764,1051.484863 954.748962,1052.535400 954.842896,1055.371948 
	C955.094177,1062.959961 958.285706,1066.815186 966.007874,1067.326172 
	C972.126465,1067.731079 978.293335,1067.407593 984.191650,1067.407593 
	C985.922546,1071.025391 984.682312,1072.463013 981.671570,1072.574707 
	C975.362549,1072.808594 969.037292,1073.209961 962.739624,1072.976318 
	C956.203369,1072.734009 951.358643,1069.559814 949.062500,1062.681152 
M957.827271,1046.770630 
	C962.651489,1046.751343 967.480408,1046.855469 972.298584,1046.674805 
	C976.297302,1046.525146 979.421753,1045.087158 979.854004,1040.404053 
	C980.328125,1035.268188 978.404114,1030.656860 974.234192,1030.017334 
	C969.781189,1029.334473 964.869385,1029.199585 960.595093,1030.392334 
	C954.794495,1032.010986 952.657898,1043.188843 957.827271,1046.770630 
z"/>
<path fill="#7DBF7C" opacity="1.000000" stroke="none" 
	d="
M889.623779,1069.817383 
	C888.388916,1071.023804 887.166260,1072.452881 885.869507,1072.523682 
	C879.411926,1072.876343 872.909302,1073.282227 866.471191,1072.883911 
	C859.240479,1072.436279 854.163452,1068.420410 853.357178,1061.366821 
	C852.406311,1053.048950 852.291504,1044.471802 853.185242,1036.154419 
	C854.008362,1028.493042 858.592163,1024.898193 866.249451,1024.012573 
	C870.169250,1023.559265 874.230469,1023.495361 878.142090,1023.966492 
	C888.541504,1025.218994 894.111572,1035.560059 889.776611,1045.144775 
	C887.911316,1049.269043 884.322327,1050.956177 880.118835,1051.084717 
	C873.348877,1051.291748 866.567871,1051.140381 859.989807,1051.140381 
	C858.050720,1061.032593 861.694031,1066.478760 870.446472,1067.363281 
	C875.393005,1067.863037 880.413818,1067.586670 885.386719,1067.893799 
	C886.817566,1067.982056 888.198181,1068.884521 889.623779,1069.817383 
M869.030212,1029.100586 
	C860.809631,1031.067505 857.905334,1036.276489 859.578247,1046.430908 
	C865.949829,1046.430908 872.380798,1046.638550 878.781372,1046.288696 
	C880.436340,1046.198120 882.679077,1044.730103 883.479370,1043.257568 
	C886.774963,1037.193970 882.752197,1029.958740 875.861206,1029.147461 
	C873.893250,1028.915771 871.880371,1029.064819 869.030212,1029.100586 
z"/>
<path fill="#7DBF7C" opacity="1.000000" stroke="none" 
	d="
M1140.695312,1024.434570 
	C1146.366455,1024.237183 1151.728760,1023.570435 1156.919312,1024.238403 
	C1164.667969,1025.235474 1168.255981,1030.920288 1167.909790,1040.029907 
	C1167.638916,1047.156494 1164.145996,1050.529785 1155.977295,1051.246948 
	C1152.672485,1051.537109 1149.333496,1051.461304 1146.009399,1051.501343 
	C1142.901855,1051.538818 1139.793457,1051.509277 1136.794067,1051.509277 
	C1135.566895,1062.155518 1139.006714,1066.693848 1148.731201,1067.527100 
	C1153.523560,1067.937622 1158.373779,1067.634888 1163.183350,1067.909058 
	C1164.381104,1067.977295 1165.522705,1069.031738 1166.689941,1069.632812 
	C1165.635742,1070.598999 1164.623047,1072.345581 1163.520264,1072.404297 
	C1156.568970,1072.775146 1149.558350,1073.280029 1142.643799,1072.746826 
	C1135.774536,1072.217285 1130.947754,1067.738281 1130.298462,1060.969971 
	C1129.498047,1052.626709 1129.618408,1044.105103 1130.306885,1035.740234 
	C1130.769897,1030.114990 1134.491821,1026.072388 1140.695312,1024.434570 
M1152.118652,1046.786011 
	C1155.870117,1046.419312 1160.301392,1046.881592 1161.012573,1041.661621 
	C1161.602051,1037.336548 1161.873169,1032.423218 1156.994507,1030.371338 
	C1151.493164,1028.057739 1145.300537,1027.546143 1140.337524,1031.382568 
	C1135.560547,1035.075195 1135.910767,1040.843994 1136.343140,1046.789185 
	C1141.616699,1046.789185 1146.408325,1046.789185 1152.118652,1046.786011 
z"/>
<path fill="#7CBE7B" opacity="1.000000" stroke="none" 
	d="
M930.916565,1034.802734 
	C931.680969,1032.718262 932.531921,1031.050415 932.923645,1029.280762 
	C933.965637,1024.572510 936.666321,1022.966980 941.635925,1024.552856 
	C941.356812,1025.692871 941.191345,1026.931152 940.755127,1028.065430 
	C935.497375,1041.734253 930.120056,1055.357788 924.975159,1069.068726 
	C923.857727,1072.046631 922.289612,1073.093750 919.126831,1073.052002 
	C916.174011,1073.013062 914.744080,1072.086792 913.713074,1069.269653 
	C908.288208,1054.447266 902.647827,1039.703735 896.977661,1024.655273 
	C901.822449,1023.253662 904.555847,1023.943665 906.174988,1029.076294 
	C909.476868,1039.542969 913.488892,1049.785767 917.229675,1060.113037 
	C917.781189,1061.635620 918.448914,1063.115845 919.454224,1065.572021 
	C923.482056,1054.774170 927.137878,1044.973511 930.916565,1034.802734 
z"/>
<path fill="#78B677" opacity="1.000000" stroke="none" 
	d="
M1006.641113,1062.862061 
	C1009.142395,1064.549072 1011.333557,1066.500244 1013.818054,1067.003174 
	C1017.447754,1067.738159 1018.252197,1069.259644 1017.063232,1072.412598 
	C1004.789673,1074.652832 998.729553,1070.694092 998.445435,1059.122070 
	C998.005066,1041.186768 998.322937,1023.232910 998.340576,1005.286926 
	C998.341064,1004.815796 998.587036,1004.344849 998.828064,1003.481201 
	C1000.823120,1003.481201 1002.873779,1003.481201 1005.557495,1003.481201 
	C1005.646423,1005.352783 1005.813904,1007.273315 1005.816772,1009.194031 
	C1005.839722,1024.482178 1005.803528,1039.770386 1005.860840,1055.058228 
	C1005.870117,1057.532471 1006.252258,1060.005371 1006.641113,1062.862061 
z"/>
<path fill="#7EC17D" opacity="1.000000" stroke="none" 
	d="
M1179.998169,1037.013550 
	C1179.998169,1032.556641 1179.998169,1028.597168 1179.998169,1024.743530 
	C1184.931274,1023.927612 1184.931274,1023.927612 1187.502319,1031.988037 
	C1193.166748,1026.166138 1199.424194,1022.123413 1208.191528,1024.196411 
	C1208.191528,1026.302002 1208.191528,1028.350098 1208.191528,1029.378662 
	C1202.214478,1031.358643 1196.616699,1032.974731 1191.215332,1035.092163 
	C1187.990356,1036.356445 1186.950317,1039.151611 1187.040283,1042.776367 
	C1187.283447,1052.565552 1187.123657,1062.364746 1187.123657,1072.537354 
	C1184.638428,1072.537354 1182.608276,1072.537354 1179.998169,1072.537354 
	C1179.998169,1060.729370 1179.998169,1049.120117 1179.998169,1037.013550 
z"/>
<path fill="#373736" opacity="1.000000" stroke="none" 
	d="
M925.489624,560.315674 
	C921.805237,562.344299 918.465698,564.200562 915.130981,566.065369 
	C908.159546,569.963806 900.140442,567.691101 896.851501,560.880371 
	C893.696533,554.346985 896.818359,546.789551 903.996277,543.583862 
	C936.832214,528.919006 971.713135,540.113098 989.831604,571.143494 
	C990.500977,572.289856 991.454346,573.489258 991.523865,574.706787 
	C991.595886,575.968933 991.078613,577.653259 990.188660,578.438660 
	C989.640076,578.922913 987.867432,578.191223 986.733398,577.767273 
	C986.188965,577.563782 985.797119,576.844421 985.427246,576.297119 
	C972.927856,557.796448 945.275452,551.805969 925.489624,560.315674 
z"/>
<path fill="#373736" opacity="1.000000" stroke="none" 
	d="
M1060.498047,592.529846 
	C1050.303345,597.598511 1039.838989,599.916870 1028.842773,599.852295 
	C1027.357422,599.843567 1025.733887,599.920349 1024.433594,599.358093 
	C1023.421692,598.920471 1022.205627,597.553894 1022.199890,596.593567 
	C1022.194458,595.674988 1023.473816,594.239258 1024.469849,593.926086 
	C1026.828735,593.184631 1029.379639,593.084412 1031.809082,592.532104 
	C1055.078247,587.241882 1071.901245,564.735657 1070.541138,540.478149 
	C1070.185547,534.136169 1071.493164,528.851990 1077.498169,525.727966 
	C1081.674561,523.555237 1085.905151,523.774414 1089.814331,526.404968 
	C1094.016479,529.232727 1096.229980,533.400696 1095.613281,538.376587 
	C1092.697021,561.908203 1082.095337,580.591858 1060.498047,592.529846 
z"/>
<path fill="#363636" opacity="1.000000" stroke="none" 
	d="
M906.636963,653.409851 
	C910.321472,622.647339 930.637573,600.447754 960.491394,594.619568 
	C965.181091,593.703979 970.105408,593.677246 974.905701,593.808838 
	C976.617615,593.855835 978.283325,595.590332 979.970093,596.554565 
	C978.426880,597.707520 976.999451,599.647095 975.322754,599.893921 
	C953.952942,603.040894 940.552063,615.678345 933.796570,635.462158 
	C931.763489,641.416016 931.771667,648.206238 931.626221,654.630981 
	C931.433411,663.146851 926.297180,669.213745 918.526917,669.031067 
	C910.939636,668.852783 905.871643,662.417114 906.636963,653.409851 
z"/>
<path fill="#373736" opacity="1.000000" stroke="none" 
	d="
M922.552124,574.494019 
	C942.360229,567.639648 960.892883,569.830078 978.561523,580.155884 
	C979.843567,580.905151 981.304260,581.644104 982.127441,582.787048 
	C982.755005,583.658447 982.920837,585.339417 982.503296,586.326477 
	C982.201416,587.040222 980.620789,587.476257 979.581726,587.535950 
	C978.662231,587.588806 977.663879,587.033081 976.767212,586.605774 
	C955.798767,576.612366 924.473633,586.352783 912.558228,610.692322 
	C911.480591,612.893677 910.091064,615.119934 908.320251,616.770020 
	C903.546082,621.219055 896.129822,621.024841 891.520386,616.664307 
	C886.813538,612.211670 886.195068,604.870422 890.295471,599.383301 
	C898.640198,588.216736 908.992493,579.582886 922.552124,574.494019 
z"/>
<path fill="#373736" opacity="1.000000" stroke="none" 
	d="
M970.296509,622.385437 
	C958.117065,641.941345 957.098999,661.379211 969.391968,680.889526 
	C972.493835,685.812622 973.503723,690.755920 970.537781,695.904236 
	C968.116699,700.106812 964.268127,702.302002 959.308899,701.973511 
	C954.029419,701.623779 950.266541,698.895264 948.042725,694.126831 
	C932.788452,661.417969 944.771729,624.545227 976.359619,607.442993 
	C978.032410,606.537354 980.516724,607.130920 982.623291,607.026611 
	C981.778015,608.903198 981.309326,611.110413 980.011047,612.589294 
	C977.061890,615.948608 973.704834,618.949829 970.296509,622.385437 
z"/>
<path fill="#363636" opacity="1.000000" stroke="none" 
	d="
M994.191162,512.740967 
	C990.626709,510.575745 987.307739,508.689758 984.071228,506.671478 
	C977.730042,502.717255 975.846802,494.940063 979.700012,488.915802 
	C983.474915,483.013947 991.575928,481.498535 997.718140,485.545197 
	C1027.333984,505.056946 1035.988403,545.480286 1016.787476,575.363892 
	C1015.805176,576.892639 1013.296448,577.440674 1011.498413,578.445312 
	C1011.332642,576.529236 1010.416443,574.268982 1011.113708,572.748718 
	C1021.235840,550.680176 1010.119446,523.647705 994.191162,512.740967 
z"/>
<path fill="#363636" opacity="1.000000" stroke="none" 
	d="
M1032.624146,683.408691 
	C1008.718628,670.018982 997.554749,649.717529 998.056702,622.897461 
	C998.088501,621.197693 999.826599,619.529724 1000.770935,617.846985 
	C1001.924316,619.333069 1003.948242,620.735229 1004.100830,622.317871 
	C1006.513550,647.344421 1031.974976,668.698669 1058.376953,666.151672 
	C1064.167480,665.593140 1068.968140,667.613770 1071.789307,672.883789 
	C1074.170898,677.332520 1073.947876,681.905334 1070.890137,686.057007 
	C1067.992798,689.990906 1063.831909,692.189026 1059.152710,691.078186 
	C1050.321777,688.981873 1041.667847,686.139343 1032.624146,683.408691 
z"/>
<path fill="#363636" opacity="1.000000" stroke="none" 
	d="
M1054.323608,636.916565 
	C1066.345825,637.500916 1076.733521,634.052307 1086.285889,627.708618 
	C1091.059937,624.538147 1096.019409,624.371399 1100.799438,627.502991 
	C1105.080078,630.307373 1106.799438,634.490967 1106.099976,639.588379 
	C1105.429932,644.472656 1102.602539,647.753784 1098.233643,649.759033 
	C1065.542480,664.764099 1029.448120,653.001221 1011.846130,621.610901 
	C1011.200317,620.459167 1010.395996,619.249573 1010.264648,618.003845 
	C1010.164612,617.054260 1010.756226,615.605408 1011.516174,615.112305 
	C1012.265686,614.625977 1013.681213,614.849548 1014.675720,615.166199 
	C1015.369873,615.387146 1015.932312,616.229004 1016.408508,616.896912 
	C1025.587158,629.771179 1038.619385,635.408142 1054.323608,636.916565 
z"/>
<path fill="#363636" opacity="1.000000" stroke="none" 
	d="
M1052.356812,622.791138 
	C1041.352905,621.519714 1031.436768,618.334900 1022.507507,612.569824 
	C1020.928040,611.550049 1020.274475,609.096252 1019.193298,607.304688 
	C1021.262390,607.167358 1023.594543,606.331909 1025.360962,606.997742 
	C1050.177490,616.351318 1076.564575,606.515076 1089.202148,583.006165 
	C1093.136353,575.687866 1097.558716,572.736145 1103.431519,573.508728 
	C1113.273926,574.803528 1117.827515,585.879700 1111.616943,594.072266 
	C1096.887573,613.502014 1077.598389,623.844666 1052.356812,622.791138 
z"/>
<path fill="#363635" opacity="1.000000" stroke="none" 
	d="
M1059.512207,539.391785 
	C1055.637451,560.925781 1043.761841,576.104919 1025.139038,586.187012 
	C1023.624146,587.007019 1021.294250,586.321594 1019.343140,586.335754 
	C1020.072388,584.558838 1020.283691,582.017456 1021.608643,581.119812 
	C1041.148193,567.881714 1048.257568,535.224915 1032.779175,512.679382 
	C1029.958740,508.571198 1028.716675,504.242615 1030.488037,499.508209 
	C1032.342896,494.550568 1036.104980,491.743866 1041.430664,491.373260 
	C1046.775024,491.001373 1051.688110,494.180969 1054.018066,499.486053 
	C1059.565308,512.116577 1061.474365,525.282837 1059.512207,539.391785 
z"/>
<path fill="#363635" opacity="1.000000" stroke="none" 
	d="
M978.264648,673.689697 
	C971.916870,653.893127 974.513611,635.533997 985.094666,618.283142 
	C986.071777,616.690186 988.533569,616.007935 990.305908,614.902710 
	C990.499634,616.930603 991.502014,619.331299 990.764954,620.930054 
	C980.816895,642.509521 991.047852,673.101074 1014.613220,684.876953 
	C1018.938416,687.038269 1022.683350,689.602112 1023.894470,694.609192 
	C1025.133789,699.732300 1023.160828,704.973145 1019.027466,707.836914 
	C1014.423157,711.026978 1008.468262,710.932739 1003.665833,707.353149 
	C992.052002,698.696411 983.292725,687.837708 978.264648,673.689697 
z"/>
<path fill="#363635" opacity="1.000000" stroke="none" 
	d="
M953.328125,527.351074 
	C949.059387,527.231750 945.233154,527.209412 941.408447,527.123474 
	C933.855530,526.953613 928.484375,521.397095 928.734375,514.053406 
	C928.973267,507.035370 935.233521,501.335419 942.581238,502.089081 
	C973.741516,505.285339 997.647827,525.811340 1002.952087,555.511292 
	C1003.851807,560.549255 1003.991577,565.777893 1003.892456,570.907043 
	C1003.861145,572.526123 1001.907043,574.107971 1000.832886,575.706848 
	C999.814758,574.213135 998.133667,572.824280 997.878357,571.209900 
	C994.317993,548.698792 980.916382,535.109253 959.639404,528.562744 
	C957.745422,527.979980 955.730286,527.791077 953.328125,527.351074 
z"/>
<path fill="#343434" opacity="1.000000" stroke="none" 
	d="
M708.992310,873.983643 
	C708.988892,863.549927 708.988892,853.613342 708.988892,843.297119 
	C730.075989,841.104553 750.490906,841.260376 770.391602,848.257874 
	C770.703918,848.367737 770.995789,848.535583 771.298401,848.673523 
	C777.790466,851.633911 783.502441,855.532043 783.596863,863.482422 
	C783.690735,871.382812 778.251160,875.694458 771.777100,878.700928 
	C760.578796,883.901367 748.616638,885.799011 736.387390,886.067505 
	C727.590088,886.260742 718.785034,886.105164 708.995667,886.105164 
	C708.995667,882.571716 708.995667,878.526306 708.992310,873.983643 
z"/>
<path fill="#353635" opacity="1.000000" stroke="none" 
	d="
M326.931488,898.063477 
	C327.986145,900.272339 328.009186,901.663696 325.382050,901.664551 
	C314.757812,901.667786 304.133575,901.665955 292.446411,901.665955 
	C298.179321,887.149231 303.793854,872.932129 309.975922,857.278015 
	C315.927032,871.578552 321.363220,884.641663 326.931488,898.063477 
z"/>
<path fill="#353635" opacity="1.000000" stroke="none" 
	d="
M878.954468,870.020508 
	C883.206909,880.357971 887.328674,890.336365 891.856567,901.297791 
	C879.601013,901.297791 868.122314,901.297791 856.180481,901.297791 
	C861.796570,887.141663 867.480469,872.814819 873.584778,857.428101 
	C875.602478,862.139465 877.213135,865.900452 878.954468,870.020508 
z"/>
<path fill="#343434" opacity="1.000000" stroke="none" 
	d="
M829.969116,1060.865723 
	C826.324951,1062.848145 823.017761,1065.470703 819.417175,1065.967651 
	C813.581116,1066.773315 807.552551,1066.184570 801.262756,1066.184570 
	C801.262756,1048.069336 801.262756,1030.518555 801.262756,1011.886353 
	C809.094543,1012.264282 816.900818,1012.074646 824.477173,1013.303040 
	C827.260254,1013.754211 830.808472,1017.111633 831.765259,1019.910034 
	C836.420715,1033.527100 836.779785,1047.246338 829.969116,1060.865723 
z"/>
<path fill="#343534" opacity="1.000000" stroke="none" 
	d="
M1086.662720,1064.129883 
	C1085.887939,1062.752930 1085.144409,1061.572144 1085.128174,1060.381592 
	C1085.022095,1052.578369 1084.891357,1044.765503 1085.217651,1036.974487 
	C1085.287476,1035.307617 1086.821167,1032.962158 1088.322021,1032.211060 
	C1101.498657,1025.616333 1110.641235,1031.210205 1111.112793,1045.976929 
	C1111.202759,1048.792969 1111.215210,1051.640137 1110.912842,1054.435059 
	C1109.802124,1064.703979 1103.653198,1069.028076 1093.586914,1066.634033 
	C1091.344849,1066.100830 1089.212891,1065.104614 1086.662720,1064.129883 
z"/>
<path fill="#343534" opacity="1.000000" stroke="none" 
	d="
M1057.948120,1056.379272 
	C1055.338989,1066.400024 1045.770874,1070.775269 1037.029663,1065.970093 
	C1034.939819,1064.821411 1032.518066,1062.158691 1032.345337,1060.022827 
	C1031.736694,1052.495117 1031.563232,1044.855469 1032.168701,1037.334106 
	C1032.554565,1032.541382 1036.334839,1030.178589 1041.278442,1029.714966 
	C1053.593994,1028.560181 1057.756958,1032.065186 1058.167480,1044.479492 
	C1058.293579,1048.294556 1058.061768,1052.121216 1057.948120,1056.379272 
z"/>
<path fill="#353835" opacity="1.000000" stroke="none" 
	d="
M957.365356,1046.744873 
	C952.657898,1043.188843 954.794495,1032.010986 960.595093,1030.392334 
	C964.869385,1029.199585 969.781189,1029.334473 974.234192,1030.017334 
	C978.404114,1030.656860 980.328125,1035.268188 979.854004,1040.404053 
	C979.421753,1045.087158 976.297302,1046.525146 972.298584,1046.674805 
	C967.480408,1046.855469 962.651489,1046.751343 957.365356,1046.744873 
z"/>
<path fill="#353835" opacity="1.000000" stroke="none" 
	d="
M869.459167,1029.069824 
	C871.880371,1029.064819 873.893250,1028.915771 875.861206,1029.147461 
	C882.752197,1029.958740 886.774963,1037.193970 883.479370,1043.257568 
	C882.679077,1044.730103 880.436340,1046.198120 878.781372,1046.288696 
	C872.380798,1046.638550 865.949829,1046.430908 859.578247,1046.430908 
	C857.905334,1036.276489 860.809631,1031.067505 869.459167,1029.069824 
z"/>
<path fill="#353835" opacity="1.000000" stroke="none" 
	d="
M1151.659424,1046.787598 
	C1146.408325,1046.789185 1141.616699,1046.789185 1136.343140,1046.789185 
	C1135.910767,1040.843994 1135.560547,1035.075195 1140.337524,1031.382568 
	C1145.300537,1027.546143 1151.493164,1028.057739 1156.994507,1030.371338 
	C1161.873169,1032.423218 1161.602051,1037.336548 1161.012573,1041.661621 
	C1160.301392,1046.881592 1155.870117,1046.419312 1151.659424,1046.787598 
z"/>
</svg>